<?xml version="1.0" encoding="utf-8"?><!-- Uploaded to: SVG Repo, www.svgrepo.com, Generator: SVG Repo Mixer Tools -->
<svg fill="#000000" width="800px" height="800px" viewBox="0 0 1024 1024" xmlns="http://www.w3.org/2000/svg"><path d="M469.333 563.2v-46.933c0-102.4-68.267-187.733-162.133-213.333l25.6-55.467c8.533-8.533 8.533-21.333 0-29.867-4.267-12.8-17.067-17.067-29.867-17.067h-115.2c-12.8 0-25.6 4.267-29.867 17.067-8.533 8.533-8.533 21.333 0 34.133l25.6 55.467C89.599 332.8 21.333 418.133 21.333 520.533v46.933c0 72.533 55.467 128 128 128h192c72.533-4.267 128-59.733 128-132.267zm-268.8-320h89.6l-25.6 55.467h-34.134L200.532 243.2zM64 563.2v-46.933c0-102.4 81.067-183.467 183.467-183.467s179.2 85.333 179.2 187.733v46.933c0 46.933-38.4 85.333-85.333 85.333h-192c-46.933-4.267-85.333-42.667-85.333-89.6zm725.333 217.6C708.266 849.067 605.866 891.733 499.2 891.733c-89.6 0-170.667-25.6-243.2-72.533h38.4c12.8 0 21.333-8.533 21.333-21.333s-8.533-21.333-21.333-21.333h-89.6c-12.8 0-21.333 8.533-21.333 21.333v89.6c0 12.8 8.533 21.333 21.333 21.333s21.333-8.533 21.333-21.333v-34.133c81.067 55.467 174.933 85.333 273.067 85.333 115.2 0 230.4-42.667 320-119.467 8.533-8.533 8.533-21.333 0-29.867-4.267-17.067-21.333-17.067-29.867-8.533zM934.4 379.733h-4.267V260.266c0-34.133-25.6-59.733-59.733-59.733H652.8c-34.133 0-59.733 25.6-59.733 59.733v119.467H588.8c-34.133 0-59.733 25.6-59.733 59.733v72.533c0 34.133 25.6 59.733 59.733 59.733h349.867c34.133 0 59.733-25.6 59.733-59.733v-72.533c-4.267-29.867-29.867-59.733-64-59.733zM631.467 260.267c0-8.533 8.533-17.067 17.067-17.067h217.6c8.533 0 17.067 8.533 17.067 17.067v119.467H631.468V260.267zm320 251.733c0 8.533-8.533 17.067-17.067 17.067H584.533c-8.533 0-17.067-8.533-17.067-17.067v-72.533c0-8.533 8.533-17.067 17.067-17.067h345.6c8.533 0 17.067 8.533 17.067 17.067V512zm-379.734 76.8c-12.8 0-21.333 8.533-21.333 21.333V640c0 29.867 25.6 55.467 55.467 55.467s55.467-25.6 55.467-55.467v-34.133c0-12.8-8.533-21.333-21.333-21.333s-21.333 8.533-21.333 21.333V640c0 4.267-4.267 12.8-12.8 12.8-4.267 0-12.8-4.267-12.8-12.8v-34.133c0-8.533-8.533-17.067-21.333-17.067zm371.2 0c-12.8 0-21.333 8.533-21.333 21.333V640c0 4.267-4.267 12.8-12.8 12.8-4.267 0-12.8-4.267-12.8-12.8v-34.133c0-12.8-8.533-21.333-21.333-21.333s-21.333 12.8-21.333 25.6v29.867c0 29.867 25.6 55.467 55.467 55.467s55.467-25.6 55.467-55.467v-34.133c0-8.533-8.533-17.067-21.333-17.067z"/><path d="M657.067 477.867c0 16.495-13.372 29.867-29.867 29.867s-29.867-13.372-29.867-29.867S610.705 448 627.2 448s29.867 13.372 29.867 29.867zm264.533 0c0 16.495-13.372 29.867-29.867 29.867s-29.867-13.372-29.867-29.867S875.238 448 891.733 448s29.867 13.372 29.867 29.867zm-110.933-21.334h-102.4c-12.8 0-21.333 8.533-21.333 21.333s8.533 21.333 21.333 21.333h102.4c12.8 0 21.333-8.533 21.333-21.333s-8.533-21.333-21.333-21.333z"/></svg>